<svg width="192" height="224" viewBox="0 0 192 224" fill="none" xmlns="http://www.w3.org/2000/svg">
<path d="M27.4302 182.238C27.4302 193.362 36.4122 202.376 47.4954 202.376H144.056C155.139 202.376 164.121 193.362 164.121 182.238" stroke="#A8A8A8" stroke-width="6" stroke-linecap="round" stroke-linejoin="round"/>
<path d="M164.121 162.247V66.1406L141.972 80.1151L117.928 66.1406L95.7786 79.1591L73.629 66.1406L49.5798 80.1151L27.4302 66.1406V162.247" stroke="#A8A8A8" stroke-width="6" stroke-linecap="round" stroke-linejoin="round"/>
<path d="M109.423 156.87C113.272 140.146 128.67 129.984 141.972 130.603" stroke="#A8A8A8" stroke-width="6" stroke-linecap="round" stroke-linejoin="round"/>
<path d="M15.725 177.155L36.9277 150.162C42.4805 155.206 43.0464 163.765 38.1996 169.501L27.4358 182.238" stroke="#A8A8A8" stroke-width="6" stroke-linecap="round" stroke-linejoin="round"/>
<path d="M3 220.282V158.67L27.4302 128.022" stroke="#A8A8A8" stroke-width="6" stroke-linecap="round" stroke-linejoin="round"/>
<path d="M54.2585 202.624C54.2585 218.184 40.0206 220.281 40.0206 220.281" stroke="#A8A8A8" stroke-width="6" stroke-linecap="round" stroke-linejoin="round"/>
<path d="M175.832 177.155L154.63 150.162C149.077 155.206 148.511 163.765 153.358 169.501L164.122 182.238" stroke="#A8A8A8" stroke-width="6" stroke-linecap="round" stroke-linejoin="round"/>
<path d="M188.753 220.282V158.67L164.323 128.022" stroke="#A8A8A8" stroke-width="6" stroke-linecap="round" stroke-linejoin="round"/>
<path d="M137.495 202.624C137.495 218.184 151.733 220.281 151.733 220.281" stroke="#A8A8A8" stroke-width="6" stroke-linecap="round" stroke-linejoin="round"/>
<path d="M46.4196 77.1175L30.1309 30.2398C26.2815 19.1614 32.1089 7.05399 43.1417 3.19063C54.1801 -0.672733 66.2439 5.17573 70.0933 16.2485L83.1937 53.9486" stroke="#A8A8A8" stroke-width="4" stroke-linecap="round" stroke-linejoin="round"/>
<path d="M58.898 23.6548L47.9829 38.8945" stroke="#A8A8A8" stroke-width="4" stroke-linecap="round" stroke-linejoin="round"/>
<path d="M66.9891 43.731L56.074 58.9763" stroke="#A8A8A8" stroke-width="4" stroke-linecap="round" stroke-linejoin="round"/>
<path d="M97.0283 61.4449C95.4986 38.2366 111.714 26.7252 123.134 35.4023" stroke="#A8A8A8" stroke-width="4" stroke-linecap="round" stroke-linejoin="round"/>
<path d="M151.705 73.9739C159.258 53.6336 146.365 41.8861 132.065 44.4504" stroke="#A8A8A8" stroke-width="4" stroke-linecap="round" stroke-linejoin="round"/>
<path d="M130.093 51.3508C131.516 39.5301 139.904 35.5599 147.653 35.7174" stroke="#A8A8A8" stroke-width="4" stroke-linecap="round" stroke-linejoin="round"/>
</svg>
