<svg width="113" height="109" viewBox="0 0 113 109" fill="none" xmlns="http://www.w3.org/2000/svg">
<g clip-path="url(#clip0_174_2708)">
<path d="M105.538 94.717H33.8113C29.0943 94.717 25.2736 90.951 25.2736 86.3016C25.2736 81.6522 29.0943 77.8862 33.8113 77.8862H82.9245" stroke="#999999" stroke-width="5" stroke-linecap="round" stroke-linejoin="round"/>
<path d="M29.1698 77.8957L17.7358 7.97835L2.35849 2.32471" stroke="#999999" stroke-width="5" stroke-linecap="round" stroke-linejoin="round"/>
<path d="M95.8019 70.6611H35.4528" stroke="#999999" stroke-width="5" stroke-linecap="round" stroke-linejoin="round"/>
<path d="M20.7642 26.4644H108.604C109.981 26.4644 110.962 27.7848 110.547 29.0773L103.047 52.631" stroke="#999999" stroke-width="5" stroke-linecap="round" stroke-linejoin="round"/>
<path d="M23.6698 44.2622H105.538" stroke="#999999" stroke-width="5" stroke-linecap="round" stroke-linejoin="round"/>
<path d="M94.1509 26.4644L88.1604 70.6613" stroke="#999999" stroke-width="5" stroke-linecap="round" stroke-linejoin="round"/>
<path d="M74.5377 26.4644L73.0377 70.6613" stroke="#999999" stroke-width="5" stroke-linecap="round" stroke-linejoin="round"/>
<path d="M55.8207 26.4644L57.566 70.6613" stroke="#999999" stroke-width="5" stroke-linecap="round" stroke-linejoin="round"/>
<path d="M36.0566 26.4644L42.7925 70.6613" stroke="#999999" stroke-width="5" stroke-linecap="round" stroke-linejoin="round"/>
<path d="M42.6698 106.675C46.02 106.675 48.7358 103.999 48.7358 100.696C48.7358 97.3942 46.02 94.7173 42.6698 94.7173C39.3196 94.7173 36.6038 97.3942 36.6038 100.696C36.6038 103.999 39.3196 106.675 42.6698 106.675Z" stroke="#999999" stroke-width="5" stroke-linecap="round" stroke-linejoin="round"/>
<path d="M91.1604 106.675C94.5105 106.675 97.2264 103.999 97.2264 100.696C97.2264 97.3942 94.5105 94.7173 91.1604 94.7173C87.8102 94.7173 85.0943 97.3942 85.0943 100.696C85.0943 103.999 87.8102 106.675 91.1604 106.675Z" stroke="#999999" stroke-width="5" stroke-linecap="round" stroke-linejoin="round"/>
</g>
<defs>
<clipPath id="clip0_174_2708">
<rect width="113" height="109" fill="white"/>
</clipPath>
</defs>
</svg>
