<svg width="119" height="125" viewBox="0 0 119 125" fill="none" xmlns="http://www.w3.org/2000/svg">
<path d="M93.6913 98.1534V52.2758C93.6913 47.6688 89.9394 43.9385 85.3059 43.9385H37.4129C32.7793 43.9385 29.0274 47.6688 29.0274 52.2758V101.11C29.0274 105.717 32.7793 109.447 37.4129 109.447H93.6913" stroke="#999999" stroke-width="7" stroke-miterlimit="10" stroke-linecap="round"/>
<path d="M82.9762 13.334H39.7425C33.8248 13.334 29.0274 18.1038 29.0274 23.9876V33.2847C29.0274 39.1685 33.8248 43.9383 39.7425 43.9383H82.9762C88.894 43.9383 93.6913 39.1685 93.6913 33.2847V23.9876C93.6913 18.1038 88.894 13.334 82.9762 13.334Z" stroke="#999999" stroke-width="7" stroke-miterlimit="10" stroke-linecap="round"/>
<path d="M75.4402 36.0747H86.9469" stroke="#999999" stroke-width="5" stroke-miterlimit="10" stroke-linecap="round"/>
<path d="M75.4402 52.1797H86.9469" stroke="#999999" stroke-width="5" stroke-miterlimit="10" stroke-linecap="round"/>
</svg>
