<svg width="136" height="134" viewBox="0 0 136 134" fill="none" xmlns="http://www.w3.org/2000/svg">
<path d="M107.313 92.9523V19.9121C107.313 18.2208 105.952 16.8584 104.276 16.8584H39.7416V102.637" stroke="#999999" stroke-width="7" stroke-miterlimit="10" stroke-linecap="round"/>
<path d="M107.314 102.825H32.9725C29.2007 102.825 26.1365 105.899 26.1365 109.697V109.415C26.1365 113.207 29.194 116.288 32.9725 116.288H107.314" stroke="#999999" stroke-width="7" stroke-miterlimit="10" stroke-linecap="round"/>
<path d="M66.2711 29.6168L65.1629 31.0866L62.2456 30.9792C52.5658 30.6303 49.8821 44.2007 58.9678 47.5967L61.1241 48.402C61.7182 48.6235 62.1121 49.194 62.1121 49.8383V59.3752C62.1121 60.9054 63.3404 62.1403 64.8625 62.1403H73.5276H82.1927C83.7148 62.1403 84.9431 60.9054 84.9431 59.3752V49.8383C84.9431 49.2007 85.337 48.6302 85.9311 48.402L88.0874 47.5967C97.1664 44.2007 94.4894 30.6303 84.8096 30.9792L81.8923 31.0866L80.7841 29.6168C77.1392 24.7846 69.916 24.7846 66.2711 29.6168Z" stroke="#999999" stroke-width="5" stroke-miterlimit="10"/>
<path d="M59.9825 71.4224H87.0793" stroke="#999999" stroke-width="5" stroke-miterlimit="10" stroke-linecap="round"/>
<path d="M64.6155 80.3486H82.64" stroke="#999999" stroke-width="5" stroke-miterlimit="10" stroke-linecap="round"/>
<path d="M39.7417 16.8584H35.2689C30.2221 16.8584 26.1365 20.9725 26.1365 26.0396V109.697" stroke="#999999" stroke-width="7" stroke-miterlimit="10"/>
</svg>
