<svg width="112" height="113" viewBox="0 0 112 113" fill="none" xmlns="http://www.w3.org/2000/svg">
<path d="M28.1409 13.3159H68.3772C72.7927 13.3159 76.5791 16.478 77.3468 20.8208L88.8965 85.9279" stroke="#999999" stroke-width="7" stroke-miterlimit="10" stroke-linecap="round"/>
<path d="M90.1317 100.39H58.8651C54.4495 100.39 50.6631 97.2284 49.8955 92.8856L37.1106 20.8208C36.3429 16.478 32.5565 13.3159 28.141 13.3159C23.1078 13.3159 19.0328 17.388 19.0328 22.4047C19.0328 27.1794 22.9116 31.0441 27.6908 31.0441H38.923" stroke="#999999" stroke-width="7" stroke-miterlimit="10" stroke-linecap="round"/>
<path d="M70.865 24.334H44.7123" stroke="#999999" stroke-width="3" stroke-miterlimit="10" stroke-linecap="round"/>
<path d="M71.9386 30.3872H45.7859" stroke="#999999" stroke-width="3" stroke-miterlimit="10" stroke-linecap="round"/>
<path d="M73.0121 36.4351H46.8594" stroke="#999999" stroke-width="3" stroke-miterlimit="10" stroke-linecap="round"/>
<path d="M74.0799 42.4883H61.676" stroke="#999999" stroke-width="3" stroke-miterlimit="10" stroke-linecap="round"/>
<path d="M55.8117 42.4883H51.9965" stroke="#999999" stroke-width="3" stroke-miterlimit="10" stroke-linecap="round"/>
<path d="M75.1535 48.5361H49.0066" stroke="#999999" stroke-width="3" stroke-miterlimit="10" stroke-linecap="round"/>
<path d="M76.2271 54.5894H50.0802" stroke="#999999" stroke-width="3" stroke-miterlimit="10" stroke-linecap="round"/>
<path d="M77.3007 60.6372H51.148" stroke="#999999" stroke-width="3" stroke-miterlimit="10" stroke-linecap="round"/>
<path d="M78.3743 66.6904H64.2907" stroke="#999999" stroke-width="3" stroke-miterlimit="10" stroke-linecap="round"/>
<path d="M69.5547 72.7441H53.2952" stroke="#999999" stroke-width="3" stroke-miterlimit="10" stroke-linecap="round"/>
<path d="M80.5214 78.7915H61.676" stroke="#999999" stroke-width="3" stroke-miterlimit="10" stroke-linecap="round"/>
<path d="M81.595 84.8447H55.4423" stroke="#999999" stroke-width="3" stroke-miterlimit="10" stroke-linecap="round"/>
<path d="M82.6686 90.8926H67.5115" stroke="#999999" stroke-width="3" stroke-miterlimit="10" stroke-linecap="round"/>
</svg>
